<svg width="200" height="200" viewBox="0 0 200 200" fill="none" xmlns="http://www.w3.org/2000/svg">
<path d="M172.879 97.7199C171.785 94.7487 168.921 88.8843 170.848 84.2189C172.254 80.8306 173.92 79.6838 173.79 74.6275C172.879 63.6807 165.067 61.361 163.374 61.1525C159.676 60.7355 157.567 63.0812 157.541 64.8796C157.515 66.678 158.062 67.5381 159.39 68.4764C159.39 68.4764 158.765 65.3227 161.655 65.7137C163.608 65.9743 164.676 68.3982 163.765 70.0924C161.447 73.2461 157.645 71.7865 155.328 69.128C153.635 67.46 149.937 62.7945 142.802 62.7424C131.553 62.6642 128.298 71.7605 120.096 68.8674C116.997 67.6424 115.252 64.7754 117.101 61.1786C118.611 59.1456 120.981 58.7286 122.569 59.6669C123.793 60.6052 124.47 62.0126 123.923 63.4722C123.403 64.4626 122.439 64.7754 121.319 64.1238C120.486 63.5243 120.408 62.7945 120.773 62.4818C121.424 62.0387 121.814 62.3515 121.814 62.3515C121.189 61.4914 120.564 61.2047 119.497 61.6477C117.179 63.2116 117.387 67.6945 123.663 67.903C130.694 67.2254 135.095 61.6217 132.621 52.8903C130.746 48.1207 124.028 35.8707 99.9927 36.001C75.9838 35.8707 69.2395 48.1207 67.3646 52.8903C64.8908 61.6217 69.2915 67.1993 76.3223 67.903C82.598 67.6945 82.8063 63.2116 80.4887 61.6477C79.4471 61.1786 78.7961 61.4914 78.1712 62.3515C78.1712 62.3515 78.5618 62.0648 79.2128 62.4818C79.5773 62.8206 79.4992 63.5243 78.6659 64.1238C77.5462 64.7754 76.5827 64.4626 76.0619 63.4722C75.5411 62.0126 76.2182 60.5791 77.4421 59.6669C79.0305 58.7547 81.4001 59.1456 82.9105 61.1786C84.7593 64.7754 83.0146 67.6424 79.9159 68.8674C71.7393 71.7605 68.4843 62.6903 57.209 62.7424C50.074 62.7945 46.3764 67.46 44.6838 69.128C42.3662 71.8126 38.5904 73.2461 36.2468 70.0924C35.3094 68.3722 36.403 65.9483 38.356 65.7137C41.2465 65.3227 40.6215 68.4764 40.6215 68.4764C41.9756 67.5121 42.5224 66.678 42.4704 64.8796C42.4443 63.0812 40.3351 60.7094 36.6374 61.1525C34.9188 61.361 27.1328 63.6807 26.2214 74.6275C26.0912 79.6838 27.7578 80.8306 29.1639 84.2189C31.0909 88.8843 28.2265 94.7487 27.1328 97.7199C26.1954 100.326 22.7841 111.456 27.237 118.31C33.6168 128.162 44.0328 123.523 44.1109 129.179C44.189 133.662 37.8873 133.088 38.6164 130.743C39.1893 128.892 41.0902 129.778 41.0902 129.778C40.0747 127.016 36.7936 126.364 34.8146 129.648C32.9137 132.802 34.1636 136.789 36.9759 138.614C43.7984 143.045 50.7771 140.334 56.1674 137.154C61.4535 134.053 66.6094 130.664 69.2134 130.586C73.1455 130.482 74.5256 133.766 73.6142 136.294C72.6767 138.875 70.5154 143.748 73.4059 147.632C76.2963 151.489 80.645 152.688 87.4154 153.992C93.4306 155.164 98.5345 160.664 99.9927 164C101.451 160.664 106.529 155.164 112.57 153.992C119.34 152.688 123.689 151.489 126.58 147.632C129.496 143.748 127.335 138.875 126.371 136.294C125.434 133.766 126.84 130.482 130.772 130.586C133.376 130.664 138.558 134.053 143.818 137.154C149.208 140.308 156.187 143.045 163.009 138.614C165.822 136.789 167.072 132.802 165.171 129.648C163.192 126.364 159.885 127.016 158.895 129.778C158.895 129.778 160.796 128.918 161.369 130.743C162.098 133.088 155.796 133.662 155.875 129.179C155.979 123.523 166.395 128.162 172.774 118.31C177.201 111.429 173.816 100.326 172.879 97.7199Z" fill="#E03A3E"/>
<path d="M170.691 98.5019C170.561 98.137 170.379 97.6939 170.196 97.2247C168.868 93.8625 166.655 88.2328 168.686 83.3328C169.103 82.2902 169.545 81.4562 169.936 80.7264C170.873 78.9541 171.498 77.7551 171.446 74.7578C170.561 64.593 163.14 63.4722 163.087 63.4461C162.697 63.394 162.358 63.394 162.046 63.4461C163.634 63.7068 165.04 64.7233 165.796 66.235C166.603 67.8509 166.603 69.7014 165.796 71.2392L165.639 71.4998C164.389 73.194 162.671 74.1583 160.718 74.2365C158.296 74.3147 155.692 73.0376 153.687 70.7701C153.505 70.5876 153.322 70.4052 153.114 70.1967C151.291 68.3201 148.245 65.1403 142.802 65.1142C138.011 65.1142 134.86 66.9387 131.839 68.711C128.272 70.7961 124.6 72.9594 119.366 71.1089H119.314L119.262 71.0828C116.919 70.1706 115.226 68.5286 114.471 66.5217C113.95 65.1403 113.638 62.9249 115.044 60.1882L115.122 60.0057L115.252 59.8494C117.335 57.0345 120.981 56.1222 123.741 57.7121L123.871 57.7903L123.975 57.8685C126.137 59.5105 126.944 61.9866 126.137 64.3063L126.085 64.4626L126.007 64.593C125.876 64.8275 125.746 65.036 125.59 65.2445C127.361 64.7233 128.741 63.7329 129.678 62.3515C131.136 60.2142 131.397 57.2169 130.433 53.6983C128.116 47.8861 121.085 38.2686 99.9926 38.3989C78.9523 38.2686 71.8954 47.8861 69.5779 53.6983C68.6144 57.2169 68.8488 60.2142 70.307 62.3515C71.2444 63.7329 72.6506 64.6972 74.3953 65.2445C74.239 65.036 74.1088 64.8275 73.9786 64.593L73.9005 64.4626L73.8484 64.3063C73.0152 61.9605 73.8484 59.5105 76.0098 57.8685L76.1139 57.7903L76.2441 57.7121C79.0044 56.1222 82.6499 57.0345 84.7331 59.8494L84.8373 60.0057L84.9154 60.1882C86.3476 62.9249 86.0091 65.1403 85.5143 66.5217C84.7592 68.5546 83.0405 70.1706 80.723 71.0828H80.6709L80.6188 71.1089C75.3588 72.9594 71.6871 70.7961 68.1196 68.711C65.099 66.9387 61.9482 65.0882 57.1568 65.1142C51.7144 65.1403 48.6678 68.294 46.871 70.1967C46.6627 70.4052 46.4804 70.6137 46.2981 70.7701C44.293 73.0376 41.663 74.3408 39.2673 74.2365C37.3143 74.1583 35.5957 73.22 34.3458 71.4998L34.2416 71.3695L34.1635 71.2392C33.3302 69.7275 33.3302 67.8509 34.1635 66.235C34.9186 64.7233 36.3248 63.6807 37.9132 63.4461C37.6008 63.4201 37.2622 63.4201 36.8716 63.4461C36.7935 63.4461 29.3982 64.593 28.5128 74.7578C28.4607 77.7551 29.0857 78.9541 30.0231 80.7264C30.4137 81.4562 30.8564 82.2902 31.2731 83.3328C33.3042 88.2328 31.0908 93.8625 29.7627 97.2247C29.5805 97.6939 29.3982 98.137 29.268 98.5019C27.6535 102.959 25.8047 111.899 29.1378 117.033C32.1324 121.673 36.0384 122.507 39.5017 123.262C42.5484 123.914 46.3242 124.748 46.4023 129.127C46.4283 131.446 45.2826 133.375 43.3035 134.287C41.3245 135.2 38.8507 134.939 37.4185 133.688C36.8456 133.193 36.481 132.567 36.2988 131.916C35.83 133.766 36.7675 135.721 38.1997 136.659C42.8608 139.683 48.0168 139.213 54.9434 135.147L57.4693 133.636C62.9637 130.352 66.4531 128.319 69.1092 128.241C71.609 128.162 73.6662 129.127 74.9682 130.899C76.2181 132.619 76.5045 134.991 75.7494 137.076L75.541 137.676C74.6557 140.047 73.3016 143.644 75.2286 146.225C77.5201 149.274 80.9574 150.395 87.8319 151.724C92.9097 152.714 97.3105 156.311 99.9665 159.673C102.597 156.337 107.023 152.714 112.101 151.724C118.976 150.395 122.413 149.274 124.705 146.225C126.631 143.644 125.303 140.047 124.392 137.676L124.184 137.076C123.429 134.991 123.715 132.645 124.965 130.899C126.241 129.127 128.324 128.162 130.824 128.241C133.48 128.319 136.995 130.326 142.464 133.636L144.99 135.147C151.916 139.213 157.072 139.683 161.733 136.659C163.166 135.721 164.103 133.766 163.634 131.916C163.478 132.593 163.087 133.193 162.541 133.688C161.108 134.939 158.635 135.2 156.656 134.287C154.677 133.375 153.531 131.446 153.557 129.127C153.635 124.748 157.411 123.914 160.457 123.262C163.921 122.507 167.827 121.673 170.821 117.033C174.154 111.873 172.306 102.959 170.691 98.5019Z" fill="#C4CED4"/>
<path d="M168.53 99.3098C168.4 98.971 168.243 98.5539 168.061 98.0848C166.603 94.3838 164.181 88.2327 166.577 82.4466C167.046 81.3258 167.54 80.3875 167.931 79.6577C168.816 78.0157 169.207 77.2338 169.181 74.9141C169.051 73.4285 168.764 72.2035 168.374 71.161C168.243 71.578 168.061 71.9689 167.853 72.3599L167.697 72.6205L167.488 72.8812C165.822 75.1487 163.452 76.4519 160.796 76.5562C157.723 76.6865 154.468 75.1227 151.994 72.386C151.812 72.2035 151.604 71.995 151.422 71.7865C149.755 70.0663 147.229 67.4599 142.776 67.4339C138.636 67.4339 135.876 69.0237 132.985 70.7179C129.34 72.8551 124.835 75.5136 118.559 73.2982H118.533C118.533 73.2982 118.481 73.2982 118.455 73.2461H118.429C115.486 72.0732 113.299 69.962 112.309 67.3296C111.632 65.5051 111.19 62.6121 113.013 59.0935L113.169 58.7807L113.377 58.4679C116.163 54.7148 121.111 53.5158 124.887 55.7052L125.147 55.8616L125.356 56.0179C126.788 57.0866 127.777 58.4679 128.298 59.9796C128.975 58.1812 128.663 56.0701 128.22 54.4281C126.085 49.1892 119.575 40.5882 99.9665 40.6925C80.3844 40.5882 73.9005 49.1892 71.7652 54.4281C71.3225 56.0701 71.0361 58.1812 71.6871 59.9796C72.2079 58.4679 73.1974 57.0866 74.6296 55.9919L74.7338 55.9137L75.1244 55.6791C78.9002 53.4898 83.8478 54.6887 86.634 58.4419L86.8424 58.7546L86.9986 59.0674C88.8214 62.5599 88.3787 65.4791 87.7017 67.3035C86.7122 69.962 84.5508 72.0471 81.5823 73.22H81.5302C81.5302 73.22 81.5042 73.2461 81.4521 73.2721H81.4C75.1244 75.4876 70.5934 72.829 66.9738 70.7179C64.0834 69.0237 61.3492 67.4078 57.2088 67.4339C52.756 67.4599 50.2301 70.0663 48.5636 71.7865C48.3813 71.9689 48.173 72.1775 47.9907 72.386C45.5429 75.1227 42.2619 76.6865 39.1892 76.5562C36.5331 76.4519 34.1635 75.1487 32.4969 72.8812L32.2886 72.6205L32.1323 72.3599C31.924 71.9689 31.7417 71.578 31.6115 71.161C31.2209 72.2035 30.9345 73.4285 30.8043 74.9141C30.7522 77.2599 31.1689 78.0157 32.0282 79.6577C32.4188 80.3875 32.9135 81.3258 33.3823 82.4466C35.7779 88.2327 33.3562 94.3838 31.898 98.0848C31.7157 98.5539 31.5595 98.971 31.4293 99.3098C30.0491 103.089 28.2003 111.403 31.0387 115.808C33.5125 119.64 36.6373 120.317 39.9443 121.047C42.965 121.699 48.5636 122.924 48.6677 129.153C48.7198 132.28 47.1053 135.017 44.4232 136.346C47.0793 136.398 50.0478 135.356 53.7195 133.219C53.7195 133.219 56.2454 131.707 56.2454 131.733C62.2346 128.136 65.776 126.103 69.031 126.025C72.312 125.947 75.0723 127.224 76.817 129.648C78.5096 131.994 78.9262 135.173 77.8846 137.962C77.8846 137.962 77.6763 138.562 77.6502 138.562C76.8951 140.595 75.8535 143.358 77.0253 144.921C78.6658 147.137 81.1917 148.153 88.1964 149.535C92.2847 150.317 96.5032 152.793 99.8884 156.259C103.274 152.793 107.492 150.343 111.58 149.535C118.611 148.179 121.111 147.137 122.778 144.921C123.949 143.358 122.908 140.595 122.153 138.562C122.048 138.275 121.97 138.093 121.918 137.936C120.903 135.173 121.319 131.994 123.012 129.648C124.757 127.224 127.517 125.947 130.798 126.025C134.027 126.129 137.594 128.162 143.557 131.733L144.807 132.489C145.328 132.802 145.745 133.036 146.083 133.271V133.219C149.729 135.382 152.697 136.398 155.354 136.346C152.697 135.017 151.057 132.28 151.109 129.153C151.213 122.924 156.812 121.725 159.832 121.047C163.14 120.317 166.264 119.64 168.738 115.808C171.576 111.403 169.728 103.089 168.374 99.3098" fill="#002B5C"/>
</svg>
